<svg xmlns="http://www.w3.org/2000/svg" xmlns:xlink="http://www.w3.org/1999/xlink" xml:lang="en" height="544.4399999999999pt" width="1176.7160000000001pt" viewBox="-212.05599999999998 -228.79999999999995 1176.7160000000001 544.4399999999999"><polygon points="-110.7,-9 -98.1,-0 -110.7,9 " style="stroke:black;fill:none;stroke-width:2.0;stroke-dasharray:-;stroke-linecap:round;stroke-linejoin:round;" /><polygon points="563.4,175.5 572.4,162.9 581.4,175.5 " style="stroke:black;fill:none;stroke-width:2.0;stroke-dasharray:-;stroke-linecap:round;stroke-linejoin:round;" /><polygon points="822.6,238.5 813.6,251.1 804.6,238.5 " style="stroke:black;fill:none;stroke-width:2.0;stroke-dasharray:-;stroke-linecap:round;stroke-linejoin:round;" /><path d="M -144.0,-0.0 L -110.7,-0 M -98.1,-9 L -98.1,9 M -98.1,-0 L -64.8,-0" style="stroke:black;fill:none;stroke-width:2.0;stroke-dasharray:-;stroke-linecap:round;stroke-linejoin:round;" /><path d="M -64.8,-0.0 L -64.8,140.76 M -55.8,140.76 L -73.8,140.76 M -55.8,147.24 L -73.8,147.24 M -64.8,147.24 L -64.8,288" style="stroke:black;fill:none;stroke-width:2.0;stroke-dasharray:-;stroke-linecap:round;stroke-linejoin:round;" /><path d="M -64.8,-0.0 L -32.4,-0 L 0,-0" style="stroke:black;fill:none;stroke-width:2.0;stroke-dasharray:-;stroke-linecap:round;stroke-linejoin:round;" /><path d="M 7.993605777301127e-15,-0.0 L -0,140.76 M 9,140.76 L -9,140.76 M 9,147.24 L -9,147.24 M -0,147.24 L -0,288" style="stroke:black;fill:none;stroke-width:2.0;stroke-dasharray:-;stroke-linecap:round;stroke-linejoin:round;" /><path d="M 7.993605777301127e-15,-0.0 L 18,-0 L 36,-0" style="stroke:black;fill:none;stroke-width:2.0;stroke-dasharray:-;stroke-linecap:round;stroke-linejoin:round;" /><path d="M 54.00000000000001,28.8 L 133.2,28.8 L 133.2,-28.8 L 54,-28.8 L 54,28.8" style="stroke:black;fill:none;stroke-width:2.0;stroke-dasharray:-;stroke-linecap:round;stroke-linejoin:round;" /><path d="M 54.00000000000001,-0.0 L 36,-0" style="stroke:black;fill:none;stroke-width:2.0;stroke-dasharray:-;stroke-linecap:round;stroke-linejoin:round;" /><path d="M 133.20000000000002,-0.0 L 151.2,-0" style="stroke:black;fill:none;stroke-width:2.0;stroke-dasharray:-;stroke-linecap:round;stroke-linejoin:round;" /><path d="M 93.60000000000002,28.8 L 93.6,46.8" style="stroke:black;fill:none;stroke-width:2.0;stroke-dasharray:-;stroke-linecap:round;stroke-linejoin:round;" /><path d="M 151.20000000000002,-0.0 L 165.6,-0 L 180,-0" style="stroke:black;fill:none;stroke-width:2.0;stroke-dasharray:-;stroke-linecap:round;stroke-linejoin:round;" /><path d="M 237.6,-50.4 L 291.6,-50.4 L 294.6,-59.4 L 300.6,-41.4 L 306.6,-59.4 L 312.6,-41.4 L 318.6,-59.4 L 324.6,-41.4 L 327.6,-50.4 L 381.6,-50.4" style="stroke:black;fill:none;stroke-width:2.0;stroke-dasharray:-;stroke-linecap:round;stroke-linejoin:round;" /><path d="M 237.6,-100.8 L 291.6,-100.8 L 294.6,-109.8 L 300.6,-91.8 L 306.6,-109.8 L 312.6,-91.8 L 318.6,-109.8 L 324.6,-91.8 L 327.6,-100.8 L 381.6,-100.8" style="stroke:black;fill:none;stroke-width:2.0;stroke-dasharray:-;stroke-linecap:round;stroke-linejoin:round;" /><path d="M 237.6,-151.2 L 291.6,-151.2 L 294.6,-160.2 L 300.6,-142.2 L 306.6,-160.2 L 312.6,-142.2 L 318.6,-160.2 L 324.6,-142.2 L 327.6,-151.2 L 381.6,-151.2" style="stroke:black;fill:none;stroke-width:2.0;stroke-dasharray:-;stroke-linecap:round;stroke-linejoin:round;" /><path d="M 237.6,-201.6 L 291.6,-201.6 L 294.6,-210.6 L 300.6,-192.6 L 306.6,-210.6 L 312.6,-192.6 L 318.6,-210.6 L 324.6,-192.6 L 327.6,-201.6 L 381.6,-201.6" style="stroke:black;fill:none;stroke-width:2.0;stroke-dasharray:-;stroke-linecap:round;stroke-linejoin:round;" /><path d="M 180.0,-0.0 L 206.64,-73.8 L 233.28,-147.6" style="stroke:black;fill:none;stroke-width:2.0;stroke-dasharray:-;stroke-linecap:round;stroke-linejoin:round;" /><path d="M 381.59999999999997,-201.6 L 381.6,-36 L 381.6,129.6" style="stroke:black;fill:none;stroke-width:2.0;stroke-dasharray:-;stroke-linecap:round;stroke-linejoin:round;" /><path d="M 381.5999999999999,129.6 L 237.6,129.6 L 93.6,129.6" style="stroke:black;fill:none;stroke-width:2.0;stroke-dasharray:-;stroke-linecap:round;stroke-linejoin:round;" /><path d="M 93.60000000000002,129.59999999999997 L 93.6,88.2 L 93.6,46.8" style="stroke:black;fill:none;stroke-width:2.0;stroke-dasharray:-;stroke-linecap:round;stroke-linejoin:round;" /><path d="M 381.59999999999997,129.6 L 408.6,129.6 L 435.6,129.6" style="stroke:black;fill:none;stroke-width:2.0;stroke-dasharray:-;stroke-linecap:round;stroke-linejoin:round;" /><path d="M 453.59999999999997,158.4 L 532.8,158.4 L 532.8,100.8 L 453.6,100.8 L 453.6,158.4" style="stroke:black;fill:none;stroke-width:2.0;stroke-dasharray:-;stroke-linecap:round;stroke-linejoin:round;" /><path d="M 453.59999999999997,129.6 L 435.6,129.6" style="stroke:black;fill:none;stroke-width:2.0;stroke-dasharray:-;stroke-linecap:round;stroke-linejoin:round;" /><path d="M 532.8000000000001,129.6 L 550.8,129.6" style="stroke:black;fill:none;stroke-width:2.0;stroke-dasharray:-;stroke-linecap:round;stroke-linejoin:round;" /><path d="M 493.2,158.4 L 493.2,176.4" style="stroke:black;fill:none;stroke-width:2.0;stroke-dasharray:-;stroke-linecap:round;stroke-linejoin:round;" /><path d="M 550.8000000000001,129.6 L 577.8,129.6 L 604.8,129.6" style="stroke:black;fill:none;stroke-width:2.0;stroke-dasharray:-;stroke-linecap:round;stroke-linejoin:round;" /><path d="M 604.8000000000001,129.6 L 604.8,151.2 L 613.8,154.2 L 595.8,160.2 L 613.8,166.2 L 595.8,172.2 L 613.8,178.2 L 595.8,184.2 L 604.8,187.2 L 604.8,208.8" style="stroke:black;fill:none;stroke-width:2.0;stroke-dasharray:-;stroke-linecap:round;stroke-linejoin:round;" /><path d="M 604.8000000000001,208.8 L 493.2,208.8 L 493.2,176.4" style="stroke:black;fill:none;stroke-width:2.0;stroke-dasharray:-;stroke-linecap:round;stroke-linejoin:round;" /><path d="M 604.8000000000001,208.8 L 604.8,230.4 L 613.8,233.4 L 595.8,239.4 L 613.8,245.4 L 595.8,251.4 L 613.8,257.4 L 595.8,263.4 L 604.8,266.4 L 604.8,288" style="stroke:black;fill:none;stroke-width:2.0;stroke-dasharray:-;stroke-linecap:round;stroke-linejoin:round;" /><path d="M 630.72,248.4 L 622.8,248.4" style="stroke:black;fill:none;stroke-width:2.0;stroke-dasharray:-;stroke-linecap:round;stroke-linejoin:round;" /><path d="M 615.8 248.4 L 622.8 245.7 L 622.8 251.1 Z" style="stroke:black;fill:black;stroke-linecap:butt;stroke-linejoin:miter;" /><path d="M 604.8000000000001,208.8 L 651.6,208.8 L 698.4,208.8" style="stroke:black;fill:none;stroke-width:2.0;stroke-dasharray:-;stroke-linecap:round;stroke-linejoin:round;" /><path d="M 698.4000000000001,208.8 L 698.4,245.16 M 707.4,245.16 L 689.4,245.16 M 707.4,251.64 L 689.4,251.64 M 698.4,251.64 L 698.4,288" style="stroke:black;fill:none;stroke-width:2.0;stroke-dasharray:-;stroke-linecap:round;stroke-linejoin:round;" /><path d="M 572.4,208.8 L 572.4,175.5 M 563.4,162.9 L 581.4,162.9 M 572.4,162.9 L 572.4,129.6" style="stroke:black;fill:none;stroke-width:2.0;stroke-dasharray:-;stroke-linecap:round;stroke-linejoin:round;" /><path d="M 604.8000000000001,129.6 L 680.4,129.6 L 756,129.6" style="stroke:black;fill:none;stroke-width:2.0;stroke-dasharray:-;stroke-linecap:round;stroke-linejoin:round;" /><path d="M 756.0,129.6 L 756,205.56 M 765,205.56 L 747,205.56 M 765,212.04 L 747,212.04 M 756,212.04 L 756,288" style="stroke:black;fill:none;stroke-width:2.0;stroke-dasharray:-;stroke-linecap:round;stroke-linejoin:round;" /><path d="M 756.0,129.6 L 784.8,129.6 L 813.6,129.6" style="stroke:black;fill:none;stroke-width:2.0;stroke-dasharray:-;stroke-linecap:round;stroke-linejoin:round;" /><path d="M 813.6,129.6 L 813.6,147.6 L 822.6,150.6 L 804.6,156.6 L 822.6,162.6 L 804.6,168.6 L 822.6,174.6 L 804.6,180.6 L 813.6,183.6 L 813.6,201.6" style="stroke:black;fill:none;stroke-width:2.0;stroke-dasharray:-;stroke-linecap:round;stroke-linejoin:round;" /><path d="M 813.6,201.6 L 813.6,238.5 M 822.6,251.1 L 804.6,251.1 M 813.6,251.1 L 813.6,288" style="stroke:black;fill:none;stroke-width:2.0;stroke-dasharray:-;stroke-linecap:round;stroke-linejoin:round;" /><path d="M 827.1,247.5 L 836.599,252.928" style="stroke:black;fill:none;stroke-width:2.0;stroke-dasharray:-;stroke-linecap:round;stroke-linejoin:round;" /><path d="M 841.114 255.508 L 835.17 255.428 L 838.028 250.427 Z" style="stroke:black;fill:black;stroke-linecap:butt;stroke-linejoin:miter;" /><path d="M 827.1,239.39999999999998 L 836.599,244.828" style="stroke:black;fill:none;stroke-width:2.0;stroke-dasharray:-;stroke-linecap:round;stroke-linejoin:round;" /><path d="M 841.114 247.408 L 835.17 247.328 L 838.028 242.327 Z" style="stroke:black;fill:black;stroke-linecap:butt;stroke-linejoin:miter;" /><path d="M 813.6,129.6 L 838.8,129.6 L 864,129.6" style="stroke:black;fill:none;stroke-width:2.0;stroke-dasharray:-;stroke-linecap:round;stroke-linejoin:round;" /><path d="M -144.0,288.0 L 360,288 L 864,288" style="stroke:black;fill:none;stroke-width:2.0;stroke-dasharray:-;stroke-linecap:round;stroke-linejoin:round;" /><path d="M -144.0,288.0 L -144,302.4 L -153,302.4 L -135,302.4 M -150.3,306.72 L -137.7,306.72 M -145.8,311.04 L -142.2,311.04" style="stroke:black;fill:none;stroke-width:2.0;stroke-dasharray:-;stroke-linecap:round;stroke-linejoin:round;" /><text x="-104.39999999999999" y="-45.6" dominant-baseline="ideographic" fill="black" font-size="11" font-family="sans" text-anchor="middle"><tspan x="-104.39999999999999" dy="11">1N5822</tspan><tspan x="-104.39999999999999" dy="11">(reverse</tspan><tspan x="-104.39999999999999" dy="11">protection)</tspan></text><text x="-58.32000000000002" y="118.98400000000001" dominant-baseline="central" fill="black" font-size="14" font-family="sans" text-anchor="middle"><tspan x="-58.32000000000002" dy="14">+</tspan></text><text x="-52.200000000000024" y="127.5" dominant-baseline="central" fill="black" font-size="11" font-family="sans" text-anchor="start"><tspan x="-52.200000000000024" dy="11">1000µF</tspan><tspan x="-52.200000000000024" dy="11">35V</tspan></text><text x="12.599999999999982" y="133.0" dominant-baseline="central" fill="black" font-size="11" font-family="sans" text-anchor="start"><tspan x="12.599999999999982" dy="11">100nF</tspan></text><text x="59.40000000000001" y="-14.0" dominant-baseline="central" fill="black" font-size="14" font-family="sans" text-anchor="start"><tspan x="59.40000000000001" dy="14">IN</tspan></text><text x="127.80000000000003" y="-14.0" dominant-baseline="central" fill="black" font-size="14" font-family="sans" text-anchor="end"><tspan x="127.80000000000003" dy="14">OUT</tspan></text><text x="93.60000000000002" y="9.400000000000002" dominant-baseline="ideographic" fill="black" font-size="14" font-family="sans" text-anchor="middle"><tspan x="93.60000000000002" dy="14">ADJ</tspan></text><text x="93.60000000000002" y="-56.400000000000006" dominant-baseline="ideographic" fill="black" font-size="12" font-family="sans" text-anchor="middle"><tspan x="93.60000000000002" dy="12">U1  LM317</tspan><tspan x="93.60000000000002" dy="12">(current limit)</tspan></text><text x="309.59999999999997" y="-73.0" dominant-baseline="ideographic" fill="black" font-size="10" font-family="sans" text-anchor="middle"><tspan x="309.59999999999997" dy="10">1.2Ω 3W  (1 A)</tspan></text><text x="309.59999999999997" y="-123.39999999999999" dominant-baseline="ideographic" fill="black" font-size="10" font-family="sans" text-anchor="middle"><tspan x="309.59999999999997" dy="10">2.4Ω 2W  (500 mA)</tspan></text><text x="309.59999999999997" y="-173.79999999999995" dominant-baseline="ideographic" fill="black" font-size="10" font-family="sans" text-anchor="middle"><tspan x="309.59999999999997" dy="10">12Ω  (100 mA)</tspan></text><text x="309.59999999999997" y="-224.2" dominant-baseline="ideographic" fill="black" font-size="10" font-family="sans" text-anchor="middle"><tspan x="309.59999999999997" dy="10">62Ω  (20 mA)</tspan></text><text x="170.63617357513323" y="-118.20845475219714" dominant-baseline="central" fill="black" font-size="10" font-family="sans" text-anchor="end"><tspan x="170.63617357513323" dy="10">CURRENT</tspan><tspan x="170.63617357513323" dy="10">RANGE</tspan><tspan x="170.63617357513323" dy="10">switch</tspan></text><text x="367.2" y="98.0" dominant-baseline="central" fill="black" font-size="10" font-family="sans" text-anchor="end"><tspan x="367.2" dy="10">I_lim = 1.25 V / R_set</tspan></text><text x="459.0" y="115.6" dominant-baseline="central" fill="black" font-size="14" font-family="sans" text-anchor="start"><tspan x="459.0" dy="14">IN</tspan></text><text x="527.4" y="115.6" dominant-baseline="central" fill="black" font-size="14" font-family="sans" text-anchor="end"><tspan x="527.4" dy="14">OUT</tspan></text><text x="493.2" y="139.0" dominant-baseline="ideographic" fill="black" font-size="14" font-family="sans" text-anchor="middle"><tspan x="493.2" dy="14">ADJ</tspan></text><text x="493.2" y="73.2" dominant-baseline="ideographic" fill="black" font-size="12" font-family="sans" text-anchor="middle"><tspan x="493.2" dy="12">U2  LM317</tspan><tspan x="493.2" dy="12">(voltage)</tspan></text><text x="617.4000000000001" y="158.20000000000002" dominant-baseline="central" fill="black" font-size="11" font-family="sans" text-anchor="start"><tspan x="617.4000000000001" dy="11">240Ω</tspan></text><text x="639.72" y="231.9" dominant-baseline="central" fill="black" font-size="11" font-family="sans" text-anchor="start"><tspan x="639.72" dy="11">5k</tspan><tspan x="639.72" dy="11">VOLTAGE</tspan></text><text x="704.8800000000001" y="223.38400000000001" dominant-baseline="central" fill="black" font-size="14" font-family="sans" text-anchor="middle"><tspan x="704.8800000000001" dy="14">+</tspan></text><text x="711.0000000000001" y="237.4" dominant-baseline="central" fill="black" font-size="11" font-family="sans" text-anchor="start"><tspan x="711.0000000000001" dy="11">10µF</tspan></text><text x="559.8000000000001" y="160.20000000000002" dominant-baseline="central" fill="black" font-size="9" font-family="sans" text-anchor="end"><tspan x="559.8000000000001" dy="9">1N4002</tspan></text><text x="768.5999999999999" y="197.8" dominant-baseline="central" fill="black" font-size="11" font-family="sans" text-anchor="start"><tspan x="768.5999999999999" dy="11">1µF</tspan></text><text x="826.2" y="154.6" dominant-baseline="central" fill="black" font-size="11" font-family="sans" text-anchor="start"><tspan x="826.2" dy="11">5.6k</tspan></text><text x="-156.6" y="288.52" dominant-baseline="central" fill="black" font-size="11" font-family="sans" text-anchor="end"><tspan x="-156.6" dy="11">brick -</tspan></text><text x="496.79999999999995" y="54.8" dominant-baseline="central" fill="black" font-size="10" font-family="sans" text-anchor="middle"><tspan x="496.79999999999995" dy="10">V_out = 1.25 V × (1 + R_pot / 240Ω)</tspan></text><text x="97.20000000000002" y="240.60000000000002" dominant-baseline="central" fill="black" font-size="10" font-family="sans" text-anchor="middle"><tspan x="97.20000000000002" dy="10">Not drawn: a 1N4002 from OUT to IN on each LM317,</tspan><tspan x="97.20000000000002" dy="10">and both LM317s on an insulated heatsink (the tab is OUT!)</tspan></text><circle cx="-144" cy="-0" r="2.7" style="stroke:black;fill:white;stroke-width:2.0;stroke-dasharray:-;" /><text x="-150.29999999999998" y="-16.5" dominant-baseline="central" fill="black" font-size="11" font-family="sans" text-anchor="end"><tspan x="-150.29999999999998" dy="11">laptop brick</tspan><tspan x="-150.29999999999998" dy="11">+19–24 V</tspan></text><circle cx="-64.8" cy="-0" r="2.7" style="stroke:black;fill:black;stroke-width:2.0;stroke-dasharray:-;" /><circle cx="0" cy="-0" r="2.7" style="stroke:black;fill:black;stroke-width:2.0;stroke-dasharray:-;" /><circle cx="180" cy="-0" r="2.7" style="stroke:black;fill:black;stroke-width:2.0;stroke-dasharray:-;" /><circle cx="237.6" cy="-50.4" r="2.7" style="stroke:black;fill:white;stroke-width:2.0;stroke-dasharray:-;" /><circle cx="237.6" cy="-100.8" r="2.7" style="stroke:black;fill:white;stroke-width:2.0;stroke-dasharray:-;" /><circle cx="237.6" cy="-151.2" r="2.7" style="stroke:black;fill:white;stroke-width:2.0;stroke-dasharray:-;" /><circle cx="237.6" cy="-201.6" r="2.7" style="stroke:black;fill:white;stroke-width:2.0;stroke-dasharray:-;" /><circle cx="381.6" cy="129.6" r="2.7" style="stroke:black;fill:black;stroke-width:2.0;stroke-dasharray:-;" /><circle cx="604.8" cy="129.6" r="2.7" style="stroke:black;fill:black;stroke-width:2.0;stroke-dasharray:-;" /><circle cx="604.8" cy="208.8" r="2.7" style="stroke:black;fill:black;stroke-width:2.0;stroke-dasharray:-;" /><circle cx="756" cy="129.6" r="2.7" style="stroke:black;fill:black;stroke-width:2.0;stroke-dasharray:-;" /><circle cx="813.6" cy="129.6" r="2.7" style="stroke:black;fill:black;stroke-width:2.0;stroke-dasharray:-;" /><circle cx="864" cy="129.6" r="2.7" style="stroke:black;fill:white;stroke-width:2.0;stroke-dasharray:-;" /><text x="870.3000000000001" y="113.1" dominant-baseline="central" fill="black" font-size="11" font-family="sans" text-anchor="start"><tspan x="870.3000000000001" dy="11">+ OUT</tspan><tspan x="870.3000000000001" dy="11">(red post)</tspan></text><circle cx="864" cy="288" r="2.7" style="stroke:black;fill:white;stroke-width:2.0;stroke-dasharray:-;" /><text x="870.3000000000001" y="266.0" dominant-baseline="central" fill="black" font-size="11" font-family="sans" text-anchor="start"><tspan x="870.3000000000001" dy="11">- OUT (black post)</tspan><tspan x="870.3000000000001" dy="11">via the meter's</tspan><tspan x="870.3000000000001" dy="11">current shunt</tspan></text></svg>